<svg version="1.1" xmlns="http://www.w3.org/2000/svg" xmlns:xlink="http://www.w3.org/1999/xlink" viewBox="0 0 172 172" width="172"  height="172" ><g transform="translate(0.516,0.516) scale(0.994,0.994)"><g fill="none" fill-rule="nonzero" stroke="none" stroke-width="1" stroke-linecap="butt" stroke-linejoin="none" stroke-miterlimit="10" stroke-dasharray="" stroke-dashoffset="0" font-family="none" font-weight="none" font-size="none" text-anchor="none" style="mix-blend-mode: normal"><g stroke="#bdbdbd" stroke-linejoin="round"><path d="M169.13333,18.63333v134.73333c0,4.74792 -3.85208,8.6 -8.6,8.6h-149.06667c-4.74792,0 -8.6,-3.85208 -8.6,-8.6v-134.73333c0,-4.74792 3.85208,-8.6 8.6,-8.6h149.06667c4.74792,0 8.6,3.85208 8.6,8.6z" fill="#e74c3c"></path><path d="M30.81667,10.03333v151.93333h-19.35c-4.74792,0 -8.6,-3.85208 -8.6,-8.6v-134.73333c0,-4.74792 3.85208,-8.6 8.6,-8.6z" fill="#80aaff"></path><path d="M153.36667,91.375v46.94167c0,3.16767 -2.56567,5.73333 -5.73333,5.73333h-93.88333c-3.19132,0 -5.73333,-2.5929 -5.73333,-5.73333v-46.94167c0,-3.16767 2.56567,-5.73333 5.73333,-5.73333h93.88333c3.16767,0 5.73333,2.56567 5.73333,5.73333z" fill="#9cbcff"></path><path d="M153.36667,117.61575v20.70092c0,3.16767 -2.56567,5.73333 -5.73333,5.73333h-93.88333c-0.98542,0 -1.91708,-0.25083 -2.72692,-0.688c3.655,-8.987 9.25575,-19.40375 16.47617,-19.59725c4.8805,-0.13258 6.278,4.51858 10.98292,4.53292c11.35558,0.03225 15.76308,-27.047 25.9505,-27.09717c7.77225,-0.03583 10.66042,15.70933 19.53992,15.3725c6.09167,-0.22933 7.90842,-7.76508 14.65942,-8.299c5.9555,-0.46942 11.2445,4.859 14.73467,9.34175z" fill="#80aaff"></path><path d="M153.36667,34.4v26.51667c0,3.16767 -2.56567,5.73333 -5.73333,5.73333h-20.425c-3.16767,0 -5.73333,-2.56567 -5.73333,-5.73333v-26.51667c0,-3.16767 2.56567,-5.73333 5.73333,-5.73333h20.425c3.16767,0 5.73333,2.56567 5.73333,5.73333z" fill="#80aaff"></path><path d="M100.69167,34.4v26.51667c0,3.16767 -2.56567,5.73333 -5.73333,5.73333h-41.20833c-3.16767,0 -5.73333,-2.56567 -5.73333,-5.73333v-26.51667c0,-3.16767 2.56567,-5.73333 5.73333,-5.73333h41.20833c3.16767,0 5.73333,2.56567 5.73333,5.73333z" fill="#80aaff"></path><path d="M148.01962,28.67957c4.53901,0.30172 4.19286,7.15377 -0.35618,7.15377c-10.50526,0 -19.02177,8.51615 -19.02177,19.02177v6.09167c0,4.54904 -6.85205,4.89519 -7.15377,0.35618c-0.01505,-0.22647 -0.0129,-26.94129 -0.0129,-26.90295c0,-3.16659 2.56674,-5.73333 5.73333,-5.73333c0,0 20.68336,0.0043 20.81128,0.0129z" fill="#9cbcff"></path><path d="M95.34462,28.67957c4.53901,0.30172 4.19286,7.15377 -0.35618,7.15377h-14.69167c-13.86965,0 -25.11343,11.24378 -25.11343,25.11343c0,4.54904 -6.85205,4.89519 -7.15377,0.35618c-0.01505,-0.22647 -0.0129,-26.94129 -0.0129,-26.90295c0,-3.16659 2.56674,-5.73333 5.73333,-5.73333c0,0 41.46669,0.0043 41.59462,0.0129z" fill="#9cbcff"></path><path d="M172,18.63333v134.73333c0,6.32279 -5.14388,11.46667 -11.46667,11.46667h-129.71667c-1.58312,0 -2.86667,-1.28355 -2.86667,-2.86667v-130.79167c0,-1.58312 1.28355,-2.86667 2.86667,-2.86667c1.58312,0 2.86667,1.28355 2.86667,2.86667v127.925h126.85c3.16122,0 5.73333,-2.57212 5.73333,-5.73333v-134.73333c0,-3.16122 -2.57212,-5.73333 -5.73333,-5.73333h-149.06667c-3.16122,0 -5.73333,2.57212 -5.73333,5.73333v134.73333c0,1.93536 0.96678,3.72738 2.58681,4.79378c1.32225,0.87075 1.68883,2.64844 0.81843,3.97069c-0.87111,1.32225 -2.64808,1.68847 -3.97069,0.81843c-3.23575,-2.13029 -5.16788,-5.71255 -5.16788,-9.58291v-134.73333c0,-6.32279 5.14387,-11.46667 11.46667,-11.46667h149.06667c6.32279,0 11.46667,5.14387 11.46667,11.46667z" fill="#000000"></path><path d="M45.15,91.375c0,-4.74183 3.85818,-8.6 8.6,-8.6h93.88333c4.74182,0 8.6,3.85817 8.6,8.6v46.94167c0,4.74182 -3.85818,8.6 -8.6,8.6h-93.88333c-1.44229,0 -2.85126,-0.36622 -4.09037,-1.03343c-1.26922,-0.68442 -1.85223,-2.24747 -1.27782,-3.63207c5.76845,-14.17817 11.99664,-21.16317 19.04004,-21.35308c5.94332,-0.14441 7.86613,4.53328 11.07787,4.53328c4.14914,0 7.90376,-6.70692 11.21655,-12.62588c3.97356,-7.09894 8.08221,-14.4394 14.70277,-14.47093c9.65959,0 12.75559,15.63623 19.44352,15.37429c4.44441,-0.16913 7.13621,-8.33053 15.48788,-8.33053c1.58132,0 2.86416,1.28068 2.86667,2.86237c0.00251,1.58312 -1.27925,2.86846 -2.86237,2.87097c-5.6889,0.01218 -7.66117,8.03742 -15.27432,8.32623c-6.16656,0.22432 -9.76279,-4.78984 -12.94873,-9.22099c-1.60784,-2.23636 -4.17709,-6.149 -6.68507,-6.149c-3.27767,0.01541 -6.70406,6.13718 -9.72732,11.53797c-3.92877,7.01903 -8.47208,15.55883 -16.24648,15.55883c-5.6932,-0.01577 -7.54292,-4.61999 -10.8962,-4.53543c-2.32343,0.06271 -6.8972,2.12993 -12.5001,14.55407h92.55678c1.58061,0 2.86667,-1.28606 2.86667,-2.86667v-46.94167c0,-1.58061 -1.28606,-2.86667 -2.86667,-2.86667h-93.88333c-1.58061,0 -2.86667,1.28606 -2.86667,2.86667v33.17486c0,1.58312 -1.28355,2.86667 -2.86667,2.86667c-1.58312,0 -2.86667,-1.28355 -2.86667,-2.86667z" fill="#000000"></path><path d="M45.15,60.91667v-26.51667c0,-4.74182 3.85818,-8.6 8.6,-8.6h41.20833c4.74182,0 8.6,3.85817 8.6,8.6v26.51667c0,4.74183 -3.85818,8.6 -8.6,8.6h-41.20833c-4.74182,0 -8.6,-3.85817 -8.6,-8.6zM50.88333,60.91667c0,1.58061 1.28606,2.86667 2.86667,2.86667h41.20833c1.58061,0 2.86667,-1.28606 2.86667,-2.86667v-26.51667c0,-1.58061 -1.28606,-2.86667 -2.86667,-2.86667h-41.20833c-1.58061,0 -2.86667,1.28606 -2.86667,2.86667z" fill="#000000"></path><path d="M84.30078,47.65833c0,-1.58312 1.28355,-2.86667 2.86667,-2.86667h1.34088c1.58312,0 2.86667,1.28355 2.86667,2.86667c0,1.58312 -1.28355,2.86667 -2.86667,2.86667h-1.34088c-1.58312,0 -2.86667,-1.28355 -2.86667,-2.86667z" fill="#000000"></path><path d="M57.69167,47.65833c0,-1.58312 1.28355,-2.86667 2.86667,-2.86667h15.05c1.58312,0 2.86667,1.28355 2.86667,2.86667c0,1.58312 -1.28355,2.86667 -2.86667,2.86667h-15.05c-1.58312,0 -2.86667,-1.28355 -2.86667,-2.86667z" fill="#000000"></path><path d="M127.20833,69.51667c-4.74182,0 -8.6,-3.85817 -8.6,-8.6v-26.51667c0,-4.74182 3.85818,-8.6 8.6,-8.6h20.425c4.74182,0 8.6,3.85817 8.6,8.6v26.51667c0,4.74183 -3.85818,8.6 -8.6,8.6zM127.20833,63.78333h20.425c1.58061,0 2.86667,-1.28606 2.86667,-2.86667v-26.51667c0,-1.58061 -1.28606,-2.86667 -2.86667,-2.86667h-20.425c-1.58061,0 -2.86667,1.28606 -2.86667,2.86667v26.51667c0,1.58061 1.28606,2.86667 2.86667,2.86667z" fill="#000000"></path><path d="M22.21667,31.175c0,1.58312 -1.28355,2.86667 -2.86667,2.86667h-5.01667c-1.58312,0 -2.86667,-1.28355 -2.86667,-2.86667c0,-1.58312 1.28355,-2.86667 2.86667,-2.86667h5.01667c1.58312,0 2.86667,1.28355 2.86667,2.86667z" fill="#000000"></path><path d="M22.21667,49.09167c0,1.58312 -1.28355,2.86667 -2.86667,2.86667h-5.01667c-1.58312,0 -2.86667,-1.28355 -2.86667,-2.86667c0,-1.58312 1.28355,-2.86667 2.86667,-2.86667h5.01667c1.58312,0 2.86667,1.28355 2.86667,2.86667z" fill="#000000"></path><path d="M22.21667,67.00833c0,1.58312 -1.28355,2.86667 -2.86667,2.86667h-5.01667c-1.58312,0 -2.86667,-1.28355 -2.86667,-2.86667c0,-1.58312 1.28355,-2.86667 2.86667,-2.86667h5.01667c1.58312,0 2.86667,1.28355 2.86667,2.86667z" fill="#000000"></path><path d="M11.46667,144.05c0,-2.96853 2.40647,-5.375 5.375,-5.375c2.96853,0 5.375,2.40647 5.375,5.375c0,2.96853 -2.40647,5.375 -5.375,5.375c-2.96853,0 -5.375,-2.40647 -5.375,-5.375z" fill="#000000"></path></g><path d="M0,172v-172h172v172z" fill="none" stroke="none" stroke-linejoin="miter"></path><g stroke="none" stroke-linejoin="miter"><path d="M160.53333,10.03333h-149.06667c-4.74792,0 -8.6,3.85208 -8.6,8.6v134.73333c0,4.74792 3.85208,8.6 8.6,8.6h149.06667c4.74792,0 8.6,-3.85208 8.6,-8.6v-134.73333c0,-4.74792 -3.85208,-8.6 -8.6,-8.6z" fill="#42434d"></path><path d="M11.46667,10.03333c-4.74792,0 -8.6,3.85208 -8.6,8.6v134.73333c0,4.74792 3.85208,8.6 8.6,8.6h19.35v-151.93333z" fill="#80aaff"></path><path d="M153.36667,91.375v46.94167c0,3.16767 -2.56567,5.73333 -5.73333,5.73333h-93.88333c-3.19132,0 -5.73333,-2.5929 -5.73333,-5.73333v-46.94167c0,-3.16767 2.56567,-5.73333 5.73333,-5.73333h93.88333c3.16767,0 5.73333,2.56567 5.73333,5.73333z" fill="#9cbcff"></path><path d="M153.36667,117.61575v20.70092c0,3.16767 -2.56567,5.73333 -5.73333,5.73333h-93.88333c-0.98542,0 -1.91708,-0.25083 -2.72692,-0.688c3.655,-8.987 9.25575,-19.40375 16.47617,-19.59725c4.8805,-0.13258 6.278,4.51858 10.98292,4.53292c11.35558,0.03225 15.76308,-27.047 25.9505,-27.09717c7.77225,-0.03583 10.66042,15.70933 19.53992,15.3725c6.09167,-0.22933 7.90842,-7.76508 14.65942,-8.299c5.9555,-0.46942 11.2445,4.859 14.73467,9.34175z" fill="#80aaff"></path><path d="M153.36667,34.4v26.51667c0,3.16767 -2.56567,5.73333 -5.73333,5.73333h-20.425c-3.16767,0 -5.73333,-2.56567 -5.73333,-5.73333v-26.51667c0,-3.16767 2.56567,-5.73333 5.73333,-5.73333h20.425c3.16767,0 5.73333,2.56567 5.73333,5.73333z" fill="#80aaff"></path><path d="M100.69167,34.4v26.51667c0,3.16767 -2.56567,5.73333 -5.73333,5.73333h-41.20833c-3.16767,0 -5.73333,-2.56567 -5.73333,-5.73333v-26.51667c0,-3.16767 2.56567,-5.73333 5.73333,-5.73333h41.20833c3.16767,0 5.73333,2.56567 5.73333,5.73333z" fill="#80aaff"></path><path d="M148.01962,28.67957c4.53901,0.30172 4.19286,7.15377 -0.35618,7.15377c-10.50526,0 -19.02177,8.51615 -19.02177,19.02177v6.09167c0,4.54904 -6.85205,4.89519 -7.15377,0.35618c-0.01505,-0.22647 -0.0129,-26.94129 -0.0129,-26.90295c0,-3.16659 2.56674,-5.73333 5.73333,-5.73333c0,0 20.68336,0.0043 20.81128,0.0129z" fill="#9cbcff"></path><path d="M95.34462,28.67957c4.53901,0.30172 4.19286,7.15377 -0.35618,7.15377h-14.69167c-13.86965,0 -25.11343,11.24378 -25.11343,25.11343c0,4.54904 -6.85205,4.89519 -7.15377,0.35618c-0.01505,-0.22647 -0.0129,-26.94129 -0.0129,-26.90295c0,-3.16659 2.56674,-5.73333 5.73333,-5.73333c0,0 41.46669,0.0043 41.59462,0.0129z" fill="#9cbcff"></path><path d="M160.53333,7.16667h-149.06667c-6.32279,0 -11.46667,5.14387 -11.46667,11.46667v134.73333c0,3.87036 1.93213,7.45262 5.16788,9.58291c1.32261,0.87003 3.09958,0.50382 3.97069,-0.81843c0.87039,-1.32225 0.50382,-3.09994 -0.81843,-3.97069c-1.62002,-1.0664 -2.58681,-2.85842 -2.58681,-4.79378v-134.73333c0,-3.16122 2.57212,-5.73333 5.73333,-5.73333h149.06667c3.16122,0 5.73333,2.57212 5.73333,5.73333v134.73333c0,3.16122 -2.57212,5.73333 -5.73333,5.73333h-126.85v-127.925c0,-1.58312 -1.28355,-2.86667 -2.86667,-2.86667c-1.58312,0 -2.86667,1.28355 -2.86667,2.86667v130.79167c0,1.58312 1.28355,2.86667 2.86667,2.86667h129.71667c6.32279,0 11.46667,-5.14387 11.46667,-11.46667v-134.73333c0,-6.32279 -5.14388,-11.46667 -11.46667,-11.46667z" fill="#000000"></path><path d="M45.15,124.54986c0,1.58312 1.28355,2.86667 2.86667,2.86667c1.58312,0 2.86667,-1.28355 2.86667,-2.86667v-33.17486c0,-1.58061 1.28606,-2.86667 2.86667,-2.86667h93.88333c1.58061,0 2.86667,1.28606 2.86667,2.86667v46.94167c0,1.58061 -1.28606,2.86667 -2.86667,2.86667h-92.55678c5.6029,-12.42413 10.17667,-14.49136 12.5001,-14.55407c3.35328,-0.08457 5.203,4.51966 10.8962,4.53543c7.7744,0 12.31771,-8.5398 16.24648,-15.55883c3.02326,-5.4008 6.44964,-11.52257 9.72732,-11.53797c2.50797,0 5.07722,3.91264 6.68507,6.149c3.18594,4.43115 6.78218,9.44531 12.94873,9.22099c7.61315,-0.28882 9.58542,-8.31405 15.27432,-8.32623c1.58312,-0.00251 2.86487,-1.28785 2.86237,-2.87097c-0.00251,-1.58168 -1.28534,-2.86237 -2.86667,-2.86237c-8.35167,0 -11.04348,8.1614 -15.48788,8.33053c-6.68793,0.26194 -9.78393,-15.37429 -19.44352,-15.37429c-6.62057,0.03153 -10.72922,7.37199 -14.70277,14.47093c-3.31279,5.91895 -7.06741,12.62588 -11.21655,12.62588c-3.21174,0 -5.13456,-4.67768 -11.07787,-4.53328c-7.0434,0.18992 -13.27159,7.17491 -19.04004,21.35308c-0.57441,1.3846 0.0086,2.94765 1.27782,3.63207c1.23912,0.66722 2.64808,1.03343 4.09037,1.03343h93.88333c4.74182,0 8.6,-3.85818 8.6,-8.6v-46.94167c0,-4.74183 -3.85818,-8.6 -8.6,-8.6h-93.88333c-4.74182,0 -8.6,3.85817 -8.6,8.6z" fill="#000000"></path><path d="M53.75,69.51667h41.20833c4.74182,0 8.6,-3.85817 8.6,-8.6v-26.51667c0,-4.74182 -3.85818,-8.6 -8.6,-8.6h-41.20833c-4.74182,0 -8.6,3.85817 -8.6,8.6v26.51667c0,4.74183 3.85818,8.6 8.6,8.6zM50.88333,34.4c0,-1.58061 1.28606,-2.86667 2.86667,-2.86667h41.20833c1.58061,0 2.86667,1.28606 2.86667,2.86667v26.51667c0,1.58061 -1.28606,2.86667 -2.86667,2.86667h-41.20833c-1.58061,0 -2.86667,-1.28606 -2.86667,-2.86667z" fill="#000000"></path><path d="M87.16745,50.525h1.34088c1.58312,0 2.86667,-1.28355 2.86667,-2.86667c0,-1.58312 -1.28355,-2.86667 -2.86667,-2.86667h-1.34088c-1.58312,0 -2.86667,1.28355 -2.86667,2.86667c0,1.58312 1.28355,2.86667 2.86667,2.86667z" fill="#000000"></path><path d="M60.55833,50.525h15.05c1.58312,0 2.86667,-1.28355 2.86667,-2.86667c0,-1.58312 -1.28355,-2.86667 -2.86667,-2.86667h-15.05c-1.58312,0 -2.86667,1.28355 -2.86667,2.86667c0,1.58312 1.28355,2.86667 2.86667,2.86667z" fill="#000000"></path><path d="M147.63333,69.51667c4.74182,0 8.6,-3.85817 8.6,-8.6v-26.51667c0,-4.74182 -3.85818,-8.6 -8.6,-8.6h-20.425c-4.74182,0 -8.6,3.85817 -8.6,8.6v26.51667c0,4.74183 3.85818,8.6 8.6,8.6zM124.34167,60.91667v-26.51667c0,-1.58061 1.28606,-2.86667 2.86667,-2.86667h20.425c1.58061,0 2.86667,1.28606 2.86667,2.86667v26.51667c0,1.58061 -1.28606,2.86667 -2.86667,2.86667h-20.425c-1.58061,0 -2.86667,-1.28606 -2.86667,-2.86667z" fill="#000000"></path><path d="M19.35,28.30833h-5.01667c-1.58312,0 -2.86667,1.28355 -2.86667,2.86667c0,1.58312 1.28355,2.86667 2.86667,2.86667h5.01667c1.58312,0 2.86667,-1.28355 2.86667,-2.86667c0,-1.58312 -1.28355,-2.86667 -2.86667,-2.86667z" fill="#000000"></path><path d="M19.35,46.225h-5.01667c-1.58312,0 -2.86667,1.28355 -2.86667,2.86667c0,1.58312 1.28355,2.86667 2.86667,2.86667h5.01667c1.58312,0 2.86667,-1.28355 2.86667,-2.86667c0,-1.58312 -1.28355,-2.86667 -2.86667,-2.86667z" fill="#000000"></path><path d="M19.35,64.14167h-5.01667c-1.58312,0 -2.86667,1.28355 -2.86667,2.86667c0,1.58312 1.28355,2.86667 2.86667,2.86667h5.01667c1.58312,0 2.86667,-1.28355 2.86667,-2.86667c0,-1.58312 -1.28355,-2.86667 -2.86667,-2.86667z" fill="#000000"></path><circle cx="47" cy="402" transform="scale(0.35833,0.35833)" r="15" fill="#000000"></circle></g><path d="" fill="none" stroke="none" stroke-linejoin="miter"></path><path d="" fill="none" stroke="none" stroke-linejoin="miter"></path></g></g></svg>